<?xml version="1.0" encoding="UTF-8"?>
<svg id="Camada_1" xmlns="http://www.w3.org/2000/svg" version="1.1" viewBox="44.10 48.07 971.80 400.01">
  <!-- Generator: Adobe Illustrator 30.2.1, SVG Export Plug-In . SVG Version: 2.1.1 Build 1)  -->
  <defs>
    <style>
      .st0 {
        fill: none;
      }

      .st1 {
        fill: #f8f8f8;
      }
    </style>
  </defs>
  <g>
    <path class="st1" d="M274.73,445.21c-.23-.37-.48-.92-.73-1.64l-9.75-26.99h-2.67l-9.93,26.66c-.25.72-.5,1.3-.75,1.73-.25.44-.59.74-1.03.91-.44.17-1.08.26-1.92.26v1.36h8.34v-1.36h-1.73c-.66,0-1.05-.18-1.2-.54-.14-.36-.12-.84.07-1.43l2.99-8.39h10.37l2.94,8.25c.22.59.25,1.09.09,1.5-.16.41-.59.61-1.31.61h-1.73v1.36h10.73v-1.36c-.75,0-1.34-.06-1.78-.19-.44-.12-.77-.37-1.01-.75ZM257,434.2l4.55-12.75h.14l4.55,12.75h-9.24Z"/>
    <path class="st1" d="M294.11,416.58h-13.92v1.36c1.16,0,1.98.06,2.48.19.5.13.81.39.94.8.12.41.19,1.02.19,1.83v22.59c0,.81-.06,1.42-.19,1.83-.13.41-.44.67-.94.8-.5.13-1.33.19-2.48.19v1.36h12.79c3.44,0,6.37-.59,8.81-1.78,2.44-1.19,4.29-2.96,5.58-5.32,1.28-2.36,1.92-5.32,1.92-8.88,0-4.9-1.32-8.61-3.96-11.13-2.64-2.51-6.38-3.79-11.22-3.82ZM303.46,438.44c-.58,1.83-1.4,3.3-2.46,4.41-1.06,1.11-2.31,1.91-3.75,2.39-1.44.49-3.01.73-4.73.73-1.06,0-1.91-.09-2.55-.26-.64-.17-1.11-.52-1.41-1.05-.3-.53-.45-1.3-.45-2.3v-21.88c0-.69.11-1.19.33-1.52.22-.33.67-.54,1.36-.63.69-.09,1.73-.14,3.14-.14,2.72.03,4.91.61,6.58,1.73,1.67,1.12,2.89,2.69,3.65,4.71.77,2.01,1.15,4.38,1.15,7.1s-.29,4.9-.87,6.72Z"/>
    <path class="st1" d="M332.86,417.94h2.25c.59,0,.94.14,1.03.42.09.28.06.72-.09,1.31l-7.78,22.59-.14-.05-7.83-22.63c-.19-.56-.22-.98-.09-1.24.12-.27.45-.4.98-.4h2.3v-1.36h-11.25v1.36c.84,0,1.49.06,1.94.19.45.13.81.38,1.08.75.26.38.52.92.77,1.64l9.51,26.99h2.62l10.07-27.13c.38-1,.8-1.66,1.27-1.97.47-.31,1.23-.47,2.3-.47v-1.36h-8.95v1.36Z"/>
    <path class="st1" d="M367.42,420.7c-1.14-1.47-2.6-2.62-4.38-3.44-1.78-.83-3.92-1.24-6.42-1.24s-4.65.41-6.44,1.24c-1.8.83-3.26,1.98-4.41,3.44-1.14,1.47-1.98,3.18-2.53,5.13-.55,1.95-.82,4.04-.82,6.26,0,3.03.5,5.76,1.5,8.18,1,2.42,2.55,4.33,4.64,5.72,2.09,1.39,4.78,2.09,8.06,2.09s5.97-.69,8.06-2.09c2.09-1.39,3.63-3.3,4.62-5.72.98-2.42,1.48-5.15,1.48-8.18,0-2.22-.27-4.3-.82-6.26-.55-1.95-1.39-3.66-2.53-5.13ZM365.52,436.26c-.16,1.37-.44,2.68-.84,3.91-.41,1.23-.95,2.32-1.64,3.26-.69.94-1.56,1.68-2.62,2.23-1.06.55-2.33.82-3.8.82s-2.73-.27-3.8-.82c-1.06-.55-1.95-1.29-2.65-2.23-.7-.94-1.25-2.02-1.64-3.26-.39-1.23-.67-2.54-.84-3.91-.17-1.37-.26-2.76-.26-4.17,0-1.91.13-3.72.4-5.46.26-1.73.73-3.28,1.38-4.64.66-1.36,1.59-2.43,2.79-3.21,1.2-.78,2.74-1.17,4.62-1.17s3.4.39,4.59,1.17c1.19.78,2.11,1.85,2.76,3.21.66,1.36,1.12,2.91,1.38,4.64.27,1.73.4,3.55.4,5.46,0,1.41-.08,2.8-.23,4.17Z"/>
    <path class="st1" d="M393.64,434.76h.75c1,0,1.69.18,2.08.54.39.36.59.94.59,1.76v6.19c-.16.84-.53,1.5-1.12,1.97-.59.47-1.29.8-2.09.98-.8.19-1.6.28-2.41.28-1.94,0-3.59-.41-4.97-1.24-1.38-.83-2.48-1.93-3.33-3.3-.84-1.37-1.46-2.91-1.85-4.62-.39-1.7-.59-3.43-.59-5.18,0-1.16.09-2.39.28-3.7.19-1.31.51-2.61.96-3.89.45-1.28,1.08-2.44,1.87-3.49.8-1.05,1.8-1.88,3-2.51,1.2-.62,2.65-.94,4.34-.94,1.5,0,2.77.23,3.82.7,1.05.47,1.92,1.09,2.62,1.85.7.77,1.26,1.58,1.66,2.44.41.86.7,1.66.89,2.41h1.22l-.47-8.43h-1.08l-.23.52c-.06.19-.19.34-.38.47-.19.13-.44.19-.75.19-.5,0-1.05-.15-1.64-.45-.59-.3-1.38-.59-2.34-.87-.97-.28-2.26-.42-3.89-.42-3.12,0-5.79.67-8.01,2.02-2.22,1.34-3.92,3.24-5.11,5.69-1.19,2.45-1.78,5.32-1.78,8.6s.57,6.01,1.71,8.36c1.14,2.36,2.78,4.18,4.92,5.46,2.14,1.28,4.73,1.92,7.76,1.92,1.22,0,2.28-.09,3.19-.26.91-.17,1.71-.37,2.41-.59.7-.22,1.31-.41,1.83-.59.51-.17.98-.26,1.38-.26.44,0,.77.1,1.01.3.23.2.41.51.54.91h.94v-10.87c0-.72.13-1.23.4-1.52.26-.3.69-.45,1.29-.45h.66v-1.36h-10.07v1.36Z"/>
    <path class="st1" d="M431.48,445.21c-.23-.37-.48-.92-.73-1.64l-9.75-26.99h-2.67l-9.93,26.66c-.25.72-.5,1.3-.75,1.73-.25.44-.59.74-1.03.91-.44.17-1.08.26-1.92.26v1.36h8.34v-1.36h-1.73c-.66,0-1.05-.18-1.2-.54-.14-.36-.12-.84.07-1.43l2.99-8.39h10.37l2.94,8.25c.22.59.25,1.09.09,1.5-.16.41-.59.61-1.31.61h-1.73v1.36h10.73v-1.36c-.75,0-1.34-.06-1.78-.19-.44-.12-.77-.37-1.01-.75ZM413.74,434.2l4.55-12.75h.14l4.55,12.75h-9.24Z"/>
    <path class="st1" d="M450.85,416.58h-13.92v1.36c1.16,0,1.98.06,2.48.19.5.13.81.39.94.8.12.41.19,1.02.19,1.83v22.59c0,.81-.06,1.42-.19,1.83-.13.41-.44.67-.94.8-.5.13-1.33.19-2.48.19v1.36h12.79c3.44,0,6.37-.59,8.81-1.78,2.44-1.19,4.29-2.96,5.58-5.32,1.28-2.36,1.92-5.32,1.92-8.88,0-4.9-1.32-8.61-3.96-11.13-2.64-2.51-6.38-3.79-11.22-3.82ZM460.2,438.44c-.58,1.83-1.4,3.3-2.46,4.41-1.06,1.11-2.31,1.91-3.75,2.39-1.44.49-3.01.73-4.73.73-1.06,0-1.91-.09-2.55-.26-.64-.17-1.11-.52-1.41-1.05-.3-.53-.45-1.3-.45-2.3v-21.88c0-.69.11-1.19.33-1.52.22-.33.67-.54,1.36-.63.69-.09,1.73-.14,3.14-.14,2.72.03,4.91.61,6.58,1.73,1.67,1.12,2.89,2.69,3.65,4.71.77,2.01,1.15,4.38,1.15,7.1s-.29,4.9-.87,6.72Z"/>
    <path class="st1" d="M496.05,420.7c-1.14-1.47-2.6-2.62-4.38-3.44-1.78-.83-3.92-1.24-6.42-1.24s-4.65.41-6.44,1.24c-1.8.83-3.26,1.98-4.41,3.44-1.14,1.47-1.98,3.18-2.53,5.13-.55,1.95-.82,4.04-.82,6.26,0,3.03.5,5.76,1.5,8.18,1,2.42,2.55,4.33,4.64,5.72,2.09,1.39,4.78,2.09,8.06,2.09s5.97-.69,8.06-2.09c2.09-1.39,3.63-3.3,4.62-5.72.98-2.42,1.48-5.15,1.48-8.18,0-2.22-.27-4.3-.82-6.26-.55-1.95-1.39-3.66-2.53-5.13ZM494.15,436.26c-.16,1.37-.44,2.68-.84,3.91s-.95,2.32-1.64,3.26c-.69.94-1.56,1.68-2.62,2.23-1.06.55-2.33.82-3.8.82s-2.73-.27-3.8-.82c-1.06-.55-1.94-1.29-2.65-2.23-.7-.94-1.25-2.02-1.64-3.26-.39-1.23-.67-2.54-.84-3.91-.17-1.37-.26-2.76-.26-4.17,0-1.91.13-3.72.4-5.46.26-1.73.73-3.28,1.38-4.64.66-1.36,1.59-2.43,2.79-3.21,1.2-.78,2.74-1.17,4.62-1.17s3.4.39,4.59,1.17c1.19.78,2.11,1.85,2.76,3.21s1.12,2.91,1.38,4.64c.27,1.73.4,3.55.4,5.46,0,1.41-.08,2.8-.23,4.17Z"/>
    <path class="st1" d="M519.97,431.86c-1.22-.75-2.51-1.41-3.89-1.97l-2.2-.94c-1.09-.47-2.05-.97-2.86-1.5-.81-.53-1.44-1.16-1.87-1.87-.44-.72-.66-1.61-.66-2.67,0-1.81.52-3.15,1.55-4.01,1.03-.86,2.34-1.29,3.94-1.29,1.44,0,2.63.31,3.58.91.95.61,1.71,1.43,2.27,2.46.56,1.03.94,2.19,1.13,3.47h1.22l-.47-8.29h-1.08c-.03.31-.11.59-.23.82-.12.23-.33.35-.61.35-.34,0-.73-.11-1.17-.33-.44-.22-1.02-.44-1.76-.66-.73-.22-1.74-.33-3.02-.33-1.75,0-3.34.29-4.78.87-1.44.58-2.59,1.46-3.44,2.65-.86,1.19-1.29,2.7-1.29,4.55,0,1.66.36,3.05,1.08,4.17.72,1.12,1.68,2.07,2.88,2.83,1.2.77,2.54,1.46,4.01,2.09l2.11.89c1.78.78,3.13,1.65,4.05,2.6.92.95,1.38,2.2,1.38,3.72,0,1.09-.24,2.11-.73,3.05-.49.94-1.2,1.68-2.13,2.23-.94.55-2.09.82-3.47.82-1.22,0-2.3-.23-3.26-.68-.95-.45-1.78-1.05-2.48-1.8-.7-.75-1.27-1.6-1.69-2.55-.42-.95-.71-1.93-.87-2.93h-1.22l.56,9.32h1.17c.06-.28.17-.54.33-.77.16-.23.41-.35.75-.35.37,0,.82.11,1.34.33.52.22,1.21.45,2.09.68.87.23,2,.35,3.37.35,1.59,0,3.04-.2,4.34-.61,1.3-.41,2.4-.99,3.33-1.76.92-.77,1.62-1.7,2.11-2.81.48-1.11.73-2.35.73-3.72,0-1.81-.38-3.3-1.15-4.45-.77-1.16-1.76-2.11-2.98-2.86Z"/>
    <path class="st1" d="M560.39,445.21c-.23-.37-.48-.92-.73-1.64l-9.75-26.99h-2.67l-9.93,26.66c-.25.72-.5,1.3-.75,1.73-.25.44-.59.74-1.03.91-.44.17-1.08.26-1.92.26v1.36h8.34v-1.36h-1.73c-.66,0-1.05-.18-1.2-.54-.14-.36-.12-.84.07-1.43l2.99-8.39h10.37l2.94,8.25c.22.59.25,1.09.09,1.5-.16.41-.59.61-1.31.61h-1.73v1.36h10.73v-1.36c-.75,0-1.34-.06-1.78-.19-.44-.12-.77-.37-1.01-.75ZM542.65,434.2l4.55-12.75h.14l4.55,12.75h-9.24Z"/>
    <path class="st1" d="M581.64,431.86c-1.22-.75-2.51-1.41-3.89-1.97l-2.2-.94c-1.09-.47-2.05-.97-2.86-1.5-.81-.53-1.44-1.16-1.87-1.87-.44-.72-.66-1.61-.66-2.67,0-1.81.52-3.15,1.55-4.01,1.03-.86,2.34-1.29,3.94-1.29,1.44,0,2.63.31,3.58.91.95.61,1.71,1.43,2.27,2.46.56,1.03.94,2.19,1.12,3.47h1.22l-.47-8.29h-1.08c-.03.31-.11.59-.23.82-.12.23-.33.35-.61.35-.34,0-.73-.11-1.17-.33-.44-.22-1.02-.44-1.76-.66-.73-.22-1.74-.33-3.02-.33-1.75,0-3.34.29-4.78.87-1.44.58-2.59,1.46-3.44,2.65-.86,1.19-1.29,2.7-1.29,4.55,0,1.66.36,3.05,1.08,4.17.72,1.12,1.68,2.07,2.88,2.83,1.2.77,2.54,1.46,4.01,2.09l2.11.89c1.78.78,3.13,1.65,4.05,2.6.92.95,1.38,2.2,1.38,3.72,0,1.09-.24,2.11-.73,3.05-.49.94-1.2,1.68-2.13,2.23-.94.55-2.09.82-3.47.82-1.22,0-2.3-.23-3.26-.68-.95-.45-1.78-1.05-2.48-1.8-.7-.75-1.27-1.6-1.69-2.55-.42-.95-.71-1.93-.87-2.93h-1.22l.56,9.32h1.17c.06-.28.17-.54.33-.77.16-.23.41-.35.75-.35.37,0,.82.11,1.34.33.52.22,1.21.45,2.09.68.87.23,2,.35,3.37.35,1.59,0,3.04-.2,4.34-.61,1.3-.41,2.4-.99,3.33-1.76.92-.77,1.62-1.7,2.11-2.81.48-1.11.73-2.35.73-3.72,0-1.81-.38-3.3-1.15-4.45-.77-1.16-1.76-2.11-2.98-2.86Z"/>
    <path class="st1" d="M606.05,431.86c-1.22-.75-2.51-1.41-3.89-1.97l-2.2-.94c-1.09-.47-2.05-.97-2.86-1.5-.81-.53-1.44-1.16-1.87-1.87-.44-.72-.66-1.61-.66-2.67,0-1.81.52-3.15,1.55-4.01,1.03-.86,2.34-1.29,3.94-1.29,1.44,0,2.63.31,3.58.91.95.61,1.71,1.43,2.27,2.46.56,1.03.94,2.19,1.12,3.47h1.22l-.47-8.29h-1.08c-.03.31-.11.59-.23.82-.12.23-.33.35-.61.35-.34,0-.73-.11-1.17-.33-.44-.22-1.02-.44-1.76-.66-.73-.22-1.74-.33-3.02-.33-1.75,0-3.34.29-4.78.87-1.44.58-2.59,1.46-3.44,2.65-.86,1.19-1.29,2.7-1.29,4.55,0,1.66.36,3.05,1.08,4.17.72,1.12,1.68,2.07,2.88,2.83,1.2.77,2.54,1.46,4.01,2.09l2.11.89c1.78.78,3.13,1.65,4.05,2.6.92.95,1.38,2.2,1.38,3.72,0,1.09-.24,2.11-.73,3.05-.49.94-1.2,1.68-2.13,2.23-.94.55-2.09.82-3.47.82-1.22,0-2.3-.23-3.26-.68-.95-.45-1.78-1.05-2.48-1.8-.7-.75-1.27-1.6-1.69-2.55-.42-.95-.71-1.93-.87-2.93h-1.22l.56,9.32h1.17c.06-.28.17-.54.33-.77.16-.23.41-.35.75-.35.37,0,.82.11,1.34.33.52.22,1.21.45,2.09.68.87.23,2,.35,3.37.35,1.59,0,3.04-.2,4.34-.61,1.3-.41,2.4-.99,3.33-1.76.92-.77,1.62-1.7,2.11-2.81.48-1.11.73-2.35.73-3.72,0-1.81-.38-3.3-1.15-4.45-.77-1.16-1.76-2.11-2.98-2.86Z"/>
    <path class="st1" d="M639.81,420.7c-1.14-1.47-2.6-2.62-4.38-3.44-1.78-.83-3.92-1.24-6.42-1.24s-4.65.41-6.44,1.24c-1.8.83-3.27,1.98-4.41,3.44-1.14,1.47-1.98,3.18-2.53,5.13-.55,1.95-.82,4.04-.82,6.26,0,3.03.5,5.76,1.5,8.18,1,2.42,2.55,4.33,4.64,5.72,2.09,1.39,4.78,2.09,8.06,2.09s5.97-.69,8.06-2.09c2.09-1.39,3.63-3.3,4.62-5.72.98-2.42,1.48-5.15,1.48-8.18,0-2.22-.27-4.3-.82-6.26-.55-1.95-1.39-3.66-2.53-5.13ZM637.91,436.26c-.16,1.37-.44,2.68-.84,3.91-.41,1.23-.95,2.32-1.64,3.26-.69.94-1.56,1.68-2.62,2.23-1.06.55-2.33.82-3.8.82s-2.73-.27-3.8-.82c-1.06-.55-1.94-1.29-2.65-2.23-.7-.94-1.25-2.02-1.64-3.26-.39-1.23-.67-2.54-.84-3.91-.17-1.37-.26-2.76-.26-4.17,0-1.91.13-3.72.4-5.46.26-1.73.73-3.28,1.38-4.64.66-1.36,1.59-2.43,2.79-3.21,1.2-.78,2.74-1.17,4.62-1.17s3.4.39,4.59,1.17c1.19.78,2.11,1.85,2.76,3.21.66,1.36,1.12,2.91,1.38,4.64.27,1.73.4,3.55.4,5.46,0,1.41-.08,2.8-.23,4.17Z"/>
    <path class="st1" d="M671.65,442.14c-.44.77-1,1.48-1.69,2.13-.69.66-1.55,1.19-2.6,1.59-1.05.41-2.34.61-3.87.61-1.87,0-3.48-.41-4.8-1.24-1.33-.83-2.41-1.94-3.23-3.33-.83-1.39-1.43-2.94-1.8-4.66-.38-1.72-.56-3.47-.56-5.25,0-1.12.09-2.33.28-3.63.19-1.3.51-2.58.96-3.84.45-1.27,1.07-2.42,1.85-3.47.78-1.05,1.76-1.88,2.95-2.51,1.19-.62,2.62-.94,4.31-.94,1.56,0,2.88.23,3.96.7,1.08.47,1.96,1.08,2.65,1.83.69.75,1.23,1.55,1.62,2.41.39.86.68,1.68.87,2.46h1.22l-.47-8.43h-1.22l-.19.52c-.06.16-.18.3-.35.45-.17.14-.43.21-.77.21-.41,0-.91-.15-1.52-.45-.61-.3-1.4-.59-2.37-.87-.97-.28-2.2-.42-3.7-.42-3.19,0-5.9.66-8.15,1.97-2.25,1.31-3.97,3.19-5.15,5.65-1.19,2.45-1.78,5.38-1.78,8.79,0,3.19.56,5.95,1.69,8.29,1.12,2.34,2.79,4.16,4.99,5.44,2.2,1.28,4.88,1.92,8.04,1.92,1.91,0,3.51-.25,4.8-.75,1.3-.5,2.37-1.14,3.21-1.92.84-.78,1.51-1.6,2.02-2.46.5-.86.89-1.65,1.17-2.37l-1.22-.61c-.31.69-.69,1.41-1.12,2.18Z"/>
    <path class="st1" d="M678.45,417.94c1.16,0,1.98.07,2.48.21.5.14.81.41.94.82.12.41.19,1.02.19,1.83v22.54c0,.78-.06,1.38-.19,1.78-.13.41-.44.68-.94.82-.5.14-1.33.21-2.48.21v1.36h11.53v-1.36c-1.12,0-1.95-.07-2.46-.21-.52-.14-.84-.41-.96-.82-.13-.41-.19-1-.19-1.78v-22.54c0-.81.06-1.42.19-1.83.12-.41.45-.68.96-.82.51-.14,1.34-.21,2.46-.21v-1.36h-11.53v1.36Z"/>
    <path class="st1" d="M719.42,445.21c-.23-.37-.48-.92-.73-1.64l-9.75-26.99h-2.67l-9.93,26.66c-.25.72-.5,1.3-.75,1.73-.25.44-.59.74-1.03.91-.44.17-1.08.26-1.92.26v1.36h8.34v-1.36h-1.73c-.66,0-1.05-.18-1.2-.54-.14-.36-.12-.84.07-1.43l2.99-8.39h10.37l2.94,8.25c.22.59.25,1.09.09,1.5-.16.41-.59.61-1.31.61h-1.73v1.36h10.73v-1.36c-.75,0-1.34-.06-1.78-.19-.44-.12-.77-.37-1.01-.75ZM701.69,434.2l4.55-12.75h.14l4.55,12.75h-9.23Z"/>
    <path class="st1" d="M738.8,416.58h-13.92v1.36c1.16,0,1.98.06,2.48.19.5.13.81.39.94.8.12.41.19,1.02.19,1.83v22.59c0,.81-.06,1.42-.19,1.83-.12.41-.44.67-.94.8-.5.13-1.33.19-2.48.19v1.36h12.79c3.44,0,6.37-.59,8.81-1.78,2.44-1.19,4.29-2.96,5.58-5.32,1.28-2.36,1.92-5.32,1.92-8.88,0-4.9-1.32-8.61-3.96-11.13-2.64-2.51-6.38-3.79-11.22-3.82ZM748.15,438.44c-.58,1.83-1.4,3.3-2.46,4.41-1.06,1.11-2.31,1.91-3.75,2.39-1.44.49-3.01.73-4.73.73-1.06,0-1.91-.09-2.55-.26-.64-.17-1.11-.52-1.41-1.05-.3-.53-.45-1.3-.45-2.3v-21.88c0-.69.11-1.19.33-1.52.22-.33.67-.54,1.36-.63.69-.09,1.73-.14,3.14-.14,2.72.03,4.91.61,6.58,1.73,1.67,1.12,2.89,2.69,3.65,4.71.77,2.01,1.15,4.38,1.15,7.1s-.29,4.9-.87,6.72Z"/>
    <path class="st1" d="M784,420.7c-1.14-1.47-2.6-2.62-4.38-3.44-1.78-.83-3.92-1.24-6.42-1.24s-4.65.41-6.44,1.24c-1.8.83-3.26,1.98-4.41,3.44-1.14,1.47-1.98,3.18-2.53,5.13-.55,1.95-.82,4.04-.82,6.26,0,3.03.5,5.76,1.5,8.18,1,2.42,2.55,4.33,4.64,5.72,2.09,1.39,4.78,2.09,8.06,2.09s5.97-.69,8.06-2.09c2.09-1.39,3.63-3.3,4.62-5.72.98-2.42,1.48-5.15,1.48-8.18,0-2.22-.27-4.3-.82-6.26-.55-1.95-1.39-3.66-2.53-5.13ZM782.1,436.26c-.16,1.37-.44,2.68-.84,3.91-.41,1.23-.95,2.32-1.64,3.26-.69.94-1.56,1.68-2.62,2.23-1.06.55-2.33.82-3.8.82s-2.73-.27-3.8-.82c-1.06-.55-1.94-1.29-2.65-2.23-.7-.94-1.25-2.02-1.64-3.26-.39-1.23-.67-2.54-.84-3.91-.17-1.37-.26-2.76-.26-4.17,0-1.91.13-3.72.4-5.46.26-1.73.73-3.28,1.38-4.64.66-1.36,1.59-2.43,2.79-3.21,1.2-.78,2.74-1.17,4.62-1.17s3.4.39,4.59,1.17c1.19.78,2.11,1.85,2.76,3.21.66,1.36,1.12,2.91,1.38,4.64.27,1.73.4,3.55.4,5.46,0,1.41-.08,2.8-.23,4.17Z"/>
    <path class="st1" d="M807.92,431.86c-1.22-.75-2.51-1.41-3.89-1.97l-2.2-.94c-1.09-.47-2.05-.97-2.86-1.5-.81-.53-1.44-1.16-1.87-1.87-.44-.72-.66-1.61-.66-2.67,0-1.81.52-3.15,1.55-4.01,1.03-.86,2.34-1.29,3.94-1.29,1.44,0,2.63.31,3.58.91.95.61,1.71,1.43,2.27,2.46.56,1.03.94,2.19,1.12,3.47h1.22l-.47-8.29h-1.08c-.03.31-.11.59-.23.82-.12.23-.33.35-.61.35-.34,0-.73-.11-1.17-.33-.44-.22-1.02-.44-1.76-.66-.73-.22-1.74-.33-3.02-.33-1.75,0-3.34.29-4.78.87-1.44.58-2.59,1.46-3.44,2.65-.86,1.19-1.29,2.7-1.29,4.55,0,1.66.36,3.05,1.08,4.17.72,1.12,1.68,2.07,2.88,2.83,1.2.77,2.54,1.46,4.01,2.09l2.11.89c1.78.78,3.13,1.65,4.05,2.6.92.95,1.38,2.2,1.38,3.72,0,1.09-.24,2.11-.73,3.05-.49.94-1.2,1.68-2.13,2.23-.94.55-2.09.82-3.47.82-1.22,0-2.3-.23-3.26-.68-.95-.45-1.78-1.05-2.48-1.8-.7-.75-1.27-1.6-1.69-2.55-.42-.95-.71-1.93-.87-2.93h-1.22l.56,9.32h1.17c.06-.28.17-.54.33-.77.16-.23.41-.35.75-.35.37,0,.82.11,1.34.33.52.22,1.21.45,2.09.68.87.23,2,.35,3.37.35,1.59,0,3.04-.2,4.34-.61,1.3-.41,2.4-.99,3.33-1.76.92-.77,1.62-1.7,2.11-2.81.48-1.11.73-2.35.73-3.72,0-1.81-.38-3.3-1.15-4.45-.77-1.16-1.76-2.11-2.98-2.86Z"/>
    <path class="st1" d="M44.1,293.58c3.47,0,5.95.21,7.45.63,1.5.42,2.44,1.22,2.81,2.39.37,1.17.56,2.98.56,5.41v67.76c0,2.34-.19,4.13-.56,5.34-.38,1.22-1.31,2.04-2.81,2.46-1.5.42-3.98.63-7.45.63v4.08h36.83v-4.08c-4.03,0-6.98-.21-8.86-.63-1.88-.42-3.05-1.24-3.51-2.46-.47-1.22-.7-3-.7-5.34v-30.93h16.73c3.65,0,6.33.38,8.01,1.12,1.69.75,2.86,1.99,3.51,3.73.65,1.74,1.22,4.05,1.69,6.96h3.23v-29.1h-3.23c-.47,2.91-1.03,5.23-1.69,6.96-.66,1.74-1.83,2.98-3.51,3.73-1.69.75-4.36,1.12-8.01,1.12h-16.73v-34.02c0-2.25.33-3.66.98-4.22.65-.56,2.06-.84,4.22-.84h12.09c5.25,0,9.21.49,11.88,1.48,2.67.98,4.64,2.72,5.9,5.2,1.26,2.48,2.27,6.02,3.02,10.61h3.65v-22.07H44.1v4.08Z"/>
    <path class="st1" d="M183.06,371.1c-.89-2.3-1.62-5.04-2.18-8.22l-.84-5.2c-.66-4.4-1.59-8.01-2.81-10.82-1.22-2.81-2.86-5.06-4.92-6.75-2.06-1.69-4.73-3-8.01-3.94v-.28c3.94-.94,7.4-2.39,10.4-4.36,3-1.97,5.34-4.54,7.03-7.73,1.69-3.18,2.53-6.98,2.53-11.39,0-5.15-1.2-9.42-3.58-12.79-2.39-3.37-5.79-5.9-10.19-7.59-4.41-1.69-9.65-2.53-15.74-2.53h-37.82v4.08c3.28,0,5.69.19,7.24.56,1.55.38,2.53,1.15,2.95,2.32.42,1.17.63,2.88.63,5.13v68.74c0,2.16-.21,3.8-.63,4.92-.42,1.12-1.38,1.9-2.88,2.32-1.5.42-3.94.63-7.31.63v4.08h35.28v-4.08c-3.47,0-6.02-.19-7.66-.56-1.64-.37-2.69-1.12-3.16-2.25-.47-1.12-.7-2.81-.7-5.06v-31.63h8.58c4.97,0,8.67,1.05,11.11,3.16,2.44,2.11,4.08,5.51,4.92,10.19l3.51,17.29c.65,3.28,1.45,5.95,2.39,8.01,0,.02.02.04.03.06,1.37,2.99,4.4,4.86,7.69,4.86h13.79v-4.08c-2.44,0-4.43-.61-5.97-1.83-1.55-1.22-2.77-2.97-3.65-5.27ZM149.39,333.64h-8.72v-34.02c0-1.78.49-3.09,1.48-3.94.98-.84,3.35-1.27,7.1-1.27,7.12,0,12.42,1.57,15.89,4.71,3.47,3.14,5.2,8.13,5.2,14.97s-1.71,11.69-5.13,14.83c-3.42,3.14-8.69,4.71-15.82,4.71Z"/>
    <path class="st1" d="M212.3,376.59c-.42-1.08-.35-2.51.21-4.29l8.98-25.16h31.12l8.83,24.74c.65,1.78.75,3.28.28,4.5-.47,1.22-1.78,1.83-3.94,1.83h-5.2v4.08h32.19v-4.08c-2.25,0-4.03-.19-5.34-.56-1.31-.37-2.32-1.12-3.02-2.25-.7-1.12-1.43-2.76-2.18-4.92l-29.24-80.97h-8.01l-29.8,79.99c-.75,2.16-1.5,3.89-2.25,5.2-.75,1.31-1.78,2.23-3.09,2.74-1.31.52-3.23.77-5.76.77v4.08h25.02v-4.08h-5.2c-1.97,0-3.16-.54-3.58-1.62ZM237.25,304.12l13.64,38.24h-27.71l13.64-38.24h.42Z"/>
    <path class="st1" d="M378.81,289.5h-28.68v4.08h5.48c4.78,0,7.17,2.25,7.17,6.75v61.15h-.28l-47.52-71.98h-23.62v4.08c3.37,0,5.83.19,7.38.56,1.55.38,2.53,1.12,2.95,2.25.42,1.12.63,2.86.63,5.2v69.3c0,4.87-2.2,7.31-6.61,7.31h-4.22v4.08h28.82v-4.08h-5.62c-2.53,0-4.34-.56-5.41-1.69-1.08-1.12-1.62-3-1.62-5.62v-67.62h.28l53.28,79.85h6.89v-82.8c0-4.5,2.15-6.75,6.47-6.75h4.22v-4.08Z"/>
    <path class="st1" d="M459.78,366.18c-1.31,2.3-3,4.43-5.06,6.4-2.06,1.97-4.66,3.56-7.8,4.78-3.14,1.22-7.01,1.83-11.6,1.83-5.62,0-10.43-1.24-14.41-3.73-3.98-2.48-7.22-5.81-9.7-9.98-2.48-4.17-4.29-8.83-5.41-13.99-1.12-5.15-1.69-10.4-1.69-15.74,0-3.37.28-7,.84-10.89.56-3.89,1.52-7.73,2.88-11.53,1.36-3.8,3.21-7.26,5.55-10.4,2.34-3.14,5.29-5.65,8.86-7.52,3.56-1.87,7.87-2.81,12.93-2.81,4.69,0,8.65.7,11.88,2.11,3.23,1.41,5.88,3.23,7.94,5.48,2.06,2.25,3.68,4.66,4.85,7.24,1.17,2.58,2.04,5.04,2.6,7.38h3.65l-1.41-25.3h-3.66l-.56,1.55c-.19.47-.54.91-1.05,1.34-.52.42-1.29.63-2.32.63-1.22,0-2.74-.44-4.57-1.34-1.83-.89-4.2-1.76-7.1-2.6-2.91-.84-6.61-1.27-11.11-1.27-9.56,0-17.71,1.97-24.46,5.9-6.75,3.94-11.9,9.58-15.46,16.94-3.56,7.36-5.34,16.14-5.34,26.36,0,9.56,1.69,17.85,5.06,24.88,3.37,7.03,8.36,12.47,14.97,16.31,6.61,3.84,14.64,5.76,24.11,5.76,5.72,0,10.52-.75,14.41-2.25,3.89-1.5,7.1-3.42,9.63-5.76,2.53-2.34,4.54-4.8,6.04-7.38,1.5-2.58,2.67-4.94,3.51-7.1l-3.65-1.83c-.94,2.06-2.06,4.24-3.37,6.54Z"/>
    <path class="st1" d="M490.43,375.25c-.38,1.22-1.31,2.02-2.81,2.39-1.5.38-3.98.56-7.45.56v4.08h68.46l1.69-24.18h-3.65c-1.22,5.34-2.72,9.42-4.5,12.23-1.78,2.81-4.34,4.73-7.66,5.76-3.33,1.03-7.8,1.55-13.43,1.55-4.97,0-8.67-.28-11.11-.84-2.44-.56-4.05-1.62-4.85-3.16-.8-1.55-1.2-3.87-1.2-6.96v-30.08h15.89c3.65,0,6.3.38,7.94,1.12,1.64.75,2.79,1.97,3.44,3.66.65,1.69,1.22,3.98,1.69,6.89h3.51v-28.68h-3.51c-.47,2.91-1.03,5.2-1.69,6.89-.66,1.69-1.81,2.91-3.44,3.66-1.64.75-4.29,1.12-7.94,1.12h-15.89v-31.91c0-2.15.3-3.54.91-4.15.61-.61,1.99-.91,4.15-.91h12.23c5.15,0,9.07.52,11.74,1.55,2.67,1.03,4.61,2.84,5.83,5.41,1.22,2.58,2.2,6.16,2.95,10.75h3.8v-22.49h-65.37v4.08c3.47,0,5.95.19,7.45.56,1.5.38,2.44,1.17,2.81,2.39.37,1.22.56,3.05.56,5.48v67.76c0,2.44-.19,4.27-.56,5.48Z"/>
    <path class="st1" d="M620.25,368.43c1.45-3.33,2.18-7.05,2.18-11.18,0-5.43-1.15-9.89-3.44-13.36-2.3-3.47-5.27-6.33-8.93-8.58-3.65-2.25-7.55-4.22-11.67-5.9l-6.61-2.81c-3.28-1.41-6.14-2.9-8.58-4.5-2.44-1.59-4.31-3.47-5.62-5.62-1.31-2.15-1.97-4.83-1.97-8.01,0-5.43,1.55-9.44,4.64-12.02,3.09-2.58,7.03-3.87,11.81-3.87,4.31,0,7.89.91,10.75,2.74,2.86,1.83,5.13,4.29,6.82,7.38,1.69,3.09,2.81,6.56,3.37,10.4h3.65l-1.41-24.88h-3.23c-.09.94-.33,1.76-.7,2.46-.38.7-.98,1.05-1.83,1.05-1.03,0-2.2-.33-3.51-.98-1.31-.65-3.07-1.31-5.27-1.97-2.2-.65-5.23-.98-9.07-.98-5.25,0-10.03.87-14.34,2.6-4.31,1.74-7.76,4.38-10.33,7.94-2.58,3.56-3.87,8.11-3.87,13.64,0,4.97,1.08,9.14,3.23,12.51,2.16,3.37,5.04,6.21,8.65,8.5,3.61,2.3,7.61,4.38,12.02,6.26l6.33,2.67c5.34,2.34,9.39,4.94,12.16,7.8,2.76,2.86,4.15,6.59,4.15,11.18,0,3.28-.73,6.33-2.18,9.14-1.45,2.81-3.58,5.04-6.4,6.68-2.81,1.64-6.28,2.46-10.4,2.46-3.65,0-6.91-.68-9.77-2.04-2.86-1.36-5.34-3.16-7.45-5.41-2.11-2.25-3.8-4.8-5.06-7.66-1.26-2.86-2.13-5.79-2.6-8.79h-3.65l1.69,27.98h3.51c.19-.84.51-1.62.98-2.32.47-.7,1.22-1.05,2.25-1.05,1.12,0,2.46.33,4.01.98,1.55.66,3.63,1.34,6.26,2.04,2.62.7,6,1.05,10.12,1.05,4.78,0,9.11-.61,13-1.83,3.89-1.22,7.22-2.97,9.98-5.27,2.76-2.3,4.87-5.11,6.33-8.43Z"/>
    <path class="st1" d="M636.35,337.01c0,9.56,1.69,17.85,5.06,24.88,3.37,7.03,8.36,12.47,14.97,16.31,6.61,3.84,14.64,5.76,24.11,5.76,5.72,0,10.52-.75,14.41-2.25,3.89-1.5,7.1-3.42,9.63-5.76,2.53-2.34,4.54-4.8,6.05-7.38,1.5-2.58,2.67-4.94,3.51-7.1l-3.65-1.83c-.94,2.06-2.06,4.24-3.37,6.54-1.31,2.3-3,4.43-5.06,6.4-2.06,1.97-4.66,3.56-7.8,4.78-3.14,1.22-7.01,1.83-11.6,1.83-5.62,0-10.43-1.24-14.41-3.73-3.98-2.48-7.22-5.81-9.7-9.98-2.48-4.17-4.29-8.83-5.41-13.99-1.12-5.15-1.69-10.4-1.69-15.74,0-3.37.28-7,.84-10.89.56-3.89,1.52-7.73,2.88-11.53,1.36-3.8,3.21-7.26,5.55-10.4,2.34-3.14,5.29-5.65,8.86-7.52,3.56-1.87,7.87-2.81,12.93-2.81,4.69,0,8.65.7,11.88,2.11,3.23,1.41,5.88,3.23,7.94,5.48,2.06,2.25,3.68,4.66,4.85,7.24,1.17,2.58,2.04,5.04,2.6,7.38h3.65l-1.41-25.3h-3.65l-.56,1.55c-.19.47-.54.91-1.05,1.34-.52.42-1.29.63-2.32.63-1.22,0-2.74-.44-4.57-1.34-1.83-.89-4.2-1.76-7.1-2.6-2.91-.84-6.61-1.27-11.11-1.27-9.56,0-17.71,1.97-24.46,5.9-6.75,3.94-11.9,9.58-15.46,16.94-3.56,7.36-5.34,16.14-5.34,26.36Z"/>
    <path class="st1" d="M785.64,293.58c3.47,0,5.95.21,7.45.63,1.5.42,2.44,1.19,2.81,2.32.37,1.12.56,2.81.56,5.06v29.66h-45.27v-29.66c0-2.25.19-3.94.56-5.06.37-1.12,1.34-1.9,2.88-2.32,1.55-.42,4.01-.63,7.38-.63v-4.08h-34.58v4.08c3.47,0,5.95.21,7.45.63,1.5.42,2.44,1.19,2.81,2.32.37,1.12.56,2.81.56,5.06v68.74c0,2.25-.19,3.94-.56,5.06-.38,1.12-1.31,1.88-2.81,2.25-1.5.38-3.98.56-7.45.56v4.08h34.58v-4.08c-3.37,0-5.83-.19-7.38-.56-1.55-.37-2.51-1.12-2.88-2.25-.38-1.12-.56-2.81-.56-5.06v-33.74h45.27v33.74c0,2.25-.19,3.94-.56,5.06-.38,1.12-1.31,1.88-2.81,2.25-1.5.38-3.98.56-7.45.56v4.08h34.58v-4.08c-3.37,0-5.81-.19-7.31-.56-1.5-.37-2.46-1.12-2.88-2.25-.42-1.12-.63-2.81-.63-5.06v-68.74c0-2.25.19-3.94.56-5.06.37-1.12,1.34-1.9,2.88-2.32,1.55-.42,4.01-.63,7.38-.63v-4.08h-34.58v4.08Z"/>
    <path class="st1" d="M834.14,293.58c3.47,0,5.95.21,7.45.63,1.5.42,2.44,1.24,2.81,2.46.37,1.22.56,3.05.56,5.48v67.62c0,2.34-.19,4.13-.56,5.34-.38,1.22-1.31,2.04-2.81,2.46-1.5.42-3.98.63-7.45.63v4.08h34.58v-4.08c-3.37,0-5.83-.21-7.38-.63-1.55-.42-2.51-1.24-2.88-2.46-.38-1.22-.56-3-.56-5.34v-67.62c0-2.44.19-4.26.56-5.48.37-1.22,1.34-2.04,2.88-2.46,1.55-.42,4.01-.63,7.38-.63v-4.08h-34.58v4.08Z"/>
    <path class="st1" d="M939.99,293.58h5.48c4.78,0,7.17,2.25,7.17,6.75v61.15h-.28l-47.52-71.98h-23.62v4.08c3.37,0,5.83.19,7.38.56,1.55.38,2.53,1.12,2.95,2.25.42,1.12.63,2.86.63,5.2v69.3c0,4.87-2.2,7.31-6.61,7.31h-4.22v4.08h28.82v-4.08h-5.62c-2.53,0-4.34-.56-5.41-1.69-1.08-1.12-1.62-3-1.62-5.62v-67.62h.28l53.28,79.85h6.89v-82.8c0-4.5,2.16-6.75,6.47-6.75h4.22v-4.08h-28.68v4.08Z"/>
    <path class="st1" d="M1005.64,296.67c.37-1.22,1.34-2.04,2.88-2.46,1.55-.42,4.01-.63,7.38-.63v-4.08h-34.58v4.08c3.47,0,5.95.21,7.45.63,1.5.42,2.44,1.24,2.81,2.46.37,1.22.56,3.05.56,5.48v67.62c0,2.34-.19,4.13-.56,5.34-.38,1.22-1.31,2.04-2.81,2.46-1.5.42-3.98.63-7.45.63v4.08h34.58v-4.08c-3.37,0-5.83-.21-7.38-.63-1.55-.42-2.51-1.24-2.88-2.46-.38-1.22-.56-3-.56-5.34v-67.62c0-2.44.19-4.26.56-5.48Z"/>
    <path class="st1" d="M526,91.2l-19.57-19.57-42.5,42.5c-1.8,1.8-2.17,4.57-.93,6.78l66.99,118.82-29.13-123.4,25.13-25.13Z"/>
    <polygon class="st1" points="453.73 116.34 502.43 67.64 482.87 48.07 414.6 116.34 530 239.73 453.73 116.34"/>
    <polygon class="st1" points="577.13 48.07 557.56 67.64 606.26 116.34 530 239.73 645.4 116.34 577.13 48.07"/>
    <rect class="st1" x="516.16" y="53.8" width="27.67" height="27.67" transform="translate(107.41 394.58) rotate(-45)"/>
    <path class="st1" d="M596.06,114.13l-42.5-42.5-19.57,19.57,25.13,25.13-29.13,123.4,66.99-118.82c1.25-2.21.87-4.98-.93-6.78Z"/>
    <path class="st1" d="M550.79,115.99l-20.79-20.79-20.79,20.79c-1.32,1.32-1.91,3.21-1.56,5.05l22.35,118.69,22.35-118.69c.35-1.84-.24-3.73-1.56-5.05Z"/>
  </g>
  
</svg>