<?xml version="1.0" encoding="UTF-8"?>
<svg id="Camada_1" xmlns="http://www.w3.org/2000/svg" version="1.1" viewBox="50.00 50.97 971.81 128.97">
  <!-- Generator: Adobe Illustrator 30.2.1, SVG Export Plug-In . SVG Version: 2.1.1 Build 1)  -->
  <defs>
    <style>
      .st0 {
        fill: none;
      }

      .st1 {
        fill: #eeeadb;
      }
    </style>
  </defs>
  <g>
    <path class="st1" d="M261.31,177.63c-.19-.3-.38-.74-.58-1.32l-7.84-21.72h-2.15l-7.99,21.46c-.2.58-.4,1.04-.6,1.4-.2.35-.48.6-.83.74-.35.14-.87.21-1.55.21v1.09h6.71v-1.09h-1.4c-.53,0-.85-.14-.96-.43-.11-.29-.09-.67.06-1.15l2.41-6.75h8.35l2.37,6.64c.18.48.2.88.08,1.21-.13.33-.48.49-1.06.49h-1.4v1.09h8.64v-1.09c-.6,0-1.08-.05-1.43-.15-.35-.1-.62-.3-.81-.6ZM247.03,168.77l3.66-10.26h.11l3.66,10.26h-7.43Z"/>
    <path class="st1" d="M276.9,154.59h-11.2v1.09c.93,0,1.6.05,2,.15.4.1.65.31.75.64.1.33.15.82.15,1.47v18.18c0,.65-.05,1.14-.15,1.47-.1.33-.35.54-.75.64-.4.1-1.07.15-2,.15v1.09h10.29c2.76,0,5.13-.48,7.09-1.43,1.96-.96,3.46-2.38,4.49-4.28,1.03-1.9,1.55-4.28,1.55-7.15,0-3.95-1.06-6.93-3.19-8.96-2.12-2.02-5.14-3.05-9.03-3.07ZM284.42,172.18c-.47,1.47-1.13,2.65-1.98,3.55-.85.89-1.86,1.53-3.02,1.92-1.16.39-2.43.58-3.81.58-.86,0-1.54-.07-2.06-.21-.52-.14-.89-.42-1.13-.85-.24-.43-.36-1.04-.36-1.85v-17.61c0-.55.09-.96.26-1.23.18-.26.54-.43,1.09-.51.55-.08,1.4-.11,2.53-.11,2.19.03,3.95.49,5.3,1.4,1.34.9,2.32,2.17,2.94,3.79.62,1.62.92,3.53.92,5.71s-.23,3.94-.7,5.41Z"/>
    <path class="st1" d="M308.08,155.68h1.81c.48,0,.75.11.83.34.08.23.05.58-.08,1.06l-6.26,18.18-.11-.04-6.3-18.21c-.15-.45-.18-.79-.08-1,.1-.21.36-.32.79-.32h1.85v-1.09h-9.05v1.09c.68,0,1.2.05,1.57.15.36.1.65.3.87.6.21.3.42.74.62,1.32l7.65,21.72h2.11l8.11-21.83c.3-.8.64-1.33,1.02-1.58.38-.25.99-.38,1.85-.38v-1.09h-7.2v1.09Z"/>
    <path class="st1" d="M335.9,157.91c-.92-1.18-2.09-2.11-3.53-2.77-1.43-.67-3.16-1-5.17-1s-3.74.33-5.19,1c-1.45.67-2.63,1.59-3.55,2.77-.92,1.18-1.6,2.56-2.04,4.13-.44,1.57-.66,3.25-.66,5.03,0,2.44.4,4.63,1.21,6.58.8,1.95,2.05,3.48,3.73,4.6,1.68,1.12,3.85,1.68,6.49,1.68s4.8-.56,6.49-1.68c1.68-1.12,2.92-2.65,3.71-4.6.79-1.95,1.19-4.14,1.19-6.58,0-1.78-.22-3.46-.66-5.03-.44-1.57-1.12-2.95-2.04-4.13ZM334.37,170.43c-.13,1.11-.35,2.16-.68,3.15-.33.99-.77,1.87-1.32,2.62-.55.75-1.26,1.35-2.11,1.79-.85.44-1.87.66-3.05.66s-2.2-.22-3.05-.66c-.85-.44-1.56-1.04-2.13-1.79-.57-.75-1.01-1.63-1.32-2.62-.31-.99-.54-2.04-.68-3.15-.14-1.11-.21-2.22-.21-3.36,0-1.53.11-3,.32-4.39.21-1.4.58-2.64,1.11-3.73.53-1.09,1.28-1.95,2.24-2.58.97-.63,2.21-.94,3.71-.94s2.74.31,3.7.94c.96.63,1.7,1.49,2.22,2.58.53,1.09.9,2.34,1.11,3.73.21,1.4.32,2.86.32,4.39,0,1.13-.06,2.25-.19,3.36Z"/>
    <path class="st1" d="M356.99,169.22h.6c.8,0,1.36.15,1.68.43.31.29.47.76.47,1.41v4.98c-.13.68-.43,1.21-.91,1.58-.48.38-1.04.64-1.68.79-.64.15-1.29.23-1.94.23-1.56,0-2.89-.33-4-1-1.11-.67-2-1.55-2.68-2.66-.68-1.11-1.18-2.34-1.49-3.71-.31-1.37-.47-2.76-.47-4.17,0-.93.08-1.92.23-2.98.15-1.06.41-2.1.77-3.13.36-1.03.87-1.97,1.51-2.81.64-.84,1.45-1.51,2.41-2.02.97-.5,2.13-.75,3.49-.75,1.21,0,2.23.19,3.07.57.84.38,1.55.87,2.11,1.49.57.62,1.01,1.27,1.34,1.96.33.69.57,1.34.72,1.94h.98l-.38-6.79h-.87l-.19.41c-.05.15-.15.28-.3.38-.15.1-.35.15-.6.15-.4,0-.84-.12-1.32-.36-.48-.24-1.11-.47-1.89-.7-.78-.23-1.82-.34-3.13-.34-2.51,0-4.66.54-6.45,1.62-1.79,1.08-3.16,2.61-4.11,4.58-.96,1.97-1.43,4.28-1.43,6.92s.46,4.83,1.38,6.73c.92,1.9,2.24,3.36,3.96,4.39,1.72,1.03,3.8,1.55,6.24,1.55.98,0,1.84-.07,2.56-.21s1.38-.29,1.94-.47c.57-.18,1.06-.33,1.47-.47.41-.14.79-.21,1.11-.21.35,0,.62.08.81.25.19.16.33.41.43.74h.75v-8.75c0-.58.11-.99.32-1.23.21-.24.56-.36,1.04-.36h.53v-1.09h-8.11v1.09Z"/>
    <path class="st1" d="M387.44,177.63c-.19-.3-.38-.74-.58-1.32l-7.84-21.72h-2.15l-7.99,21.46c-.2.58-.4,1.04-.6,1.4-.2.35-.48.6-.83.74-.35.14-.87.21-1.55.21v1.09h6.71v-1.09h-1.4c-.53,0-.85-.14-.96-.43-.11-.29-.09-.67.06-1.15l2.41-6.75h8.35l2.37,6.64c.18.48.2.88.08,1.21-.13.33-.48.49-1.06.49h-1.4v1.09h8.64v-1.09c-.6,0-1.08-.05-1.43-.15-.35-.1-.62-.3-.81-.6ZM373.17,168.77l3.66-10.26h.11l3.66,10.26h-7.43Z"/>
    <path class="st1" d="M403.04,154.59h-11.2v1.09c.93,0,1.6.05,2,.15.4.1.65.31.75.64.1.33.15.82.15,1.47v18.18c0,.65-.05,1.14-.15,1.47-.1.33-.35.54-.75.64-.4.1-1.07.15-2,.15v1.09h10.29c2.76,0,5.13-.48,7.09-1.43,1.96-.96,3.46-2.38,4.49-4.28,1.03-1.9,1.55-4.28,1.55-7.15,0-3.95-1.06-6.93-3.19-8.96-2.12-2.02-5.14-3.05-9.03-3.07ZM410.56,172.18c-.47,1.47-1.13,2.65-1.98,3.55-.85.89-1.86,1.53-3.02,1.92-1.16.39-2.43.58-3.81.58-.86,0-1.54-.07-2.06-.21-.52-.14-.89-.42-1.13-.85-.24-.43-.36-1.04-.36-1.85v-17.61c0-.55.09-.96.26-1.23.18-.26.54-.43,1.09-.51.55-.08,1.4-.11,2.53-.11,2.19.03,3.95.49,5.3,1.4,1.34.9,2.32,2.17,2.94,3.79.62,1.62.92,3.53.92,5.71s-.23,3.94-.7,5.41Z"/>
    <path class="st1" d="M439.41,157.91c-.92-1.18-2.09-2.11-3.53-2.77-1.43-.67-3.16-1-5.17-1s-3.74.33-5.19,1c-1.45.67-2.63,1.59-3.55,2.77-.92,1.18-1.6,2.56-2.04,4.13-.44,1.57-.66,3.25-.66,5.03,0,2.44.4,4.63,1.21,6.58.8,1.95,2.05,3.48,3.73,4.6,1.68,1.12,3.85,1.68,6.49,1.68s4.8-.56,6.49-1.68c1.68-1.12,2.92-2.65,3.71-4.6.79-1.95,1.19-4.14,1.19-6.58,0-1.78-.22-3.46-.66-5.03-.44-1.57-1.12-2.95-2.04-4.13ZM437.88,170.43c-.13,1.11-.35,2.16-.68,3.15-.33.99-.77,1.87-1.32,2.62-.55.75-1.26,1.35-2.11,1.79-.85.44-1.87.66-3.05.66s-2.2-.22-3.05-.66c-.85-.44-1.56-1.04-2.13-1.79-.57-.75-1.01-1.63-1.32-2.62-.31-.99-.54-2.04-.68-3.15-.14-1.11-.21-2.22-.21-3.36,0-1.53.11-3,.32-4.39.21-1.4.58-2.64,1.11-3.73.53-1.09,1.28-1.95,2.24-2.58.97-.63,2.21-.94,3.71-.94s2.74.31,3.7.94c.95.63,1.7,1.49,2.22,2.58.53,1.09.9,2.34,1.11,3.73.21,1.4.32,2.86.32,4.39,0,1.13-.06,2.25-.19,3.36Z"/>
    <path class="st1" d="M458.66,166.88c-.98-.6-2.02-1.13-3.13-1.58l-1.77-.75c-.88-.38-1.65-.78-2.3-1.21-.65-.43-1.16-.93-1.51-1.51-.35-.58-.53-1.29-.53-2.15,0-1.46.41-2.53,1.24-3.22.83-.69,1.89-1.04,3.17-1.04,1.16,0,2.12.25,2.88.74.77.49,1.38,1.15,1.83,1.98.45.83.75,1.76.91,2.79h.98l-.38-6.67h-.87c-.03.25-.09.47-.19.66-.1.19-.26.28-.49.28-.28,0-.59-.09-.94-.26-.35-.18-.82-.35-1.41-.53-.59-.18-1.4-.26-2.43-.26-1.41,0-2.69.23-3.85.7-1.16.47-2.08,1.18-2.77,2.13-.69.96-1.04,2.18-1.04,3.66,0,1.33.29,2.45.87,3.36.58.91,1.35,1.67,2.32,2.28.97.62,2.04,1.18,3.22,1.68l1.7.72c1.43.63,2.52,1.33,3.26,2.09.74.77,1.11,1.77,1.11,3,0,.88-.2,1.7-.58,2.45-.39.75-.96,1.35-1.72,1.79-.75.44-1.68.66-2.79.66-.98,0-1.85-.18-2.62-.55-.77-.36-1.43-.85-2-1.45-.57-.6-1.02-1.29-1.36-2.06-.34-.77-.57-1.55-.7-2.36h-.98l.45,7.5h.94c.05-.23.14-.43.26-.62.13-.19.33-.28.6-.28.3,0,.66.09,1.07.26.41.18.97.36,1.68.55.7.19,1.61.28,2.71.28,1.28,0,2.44-.16,3.49-.49,1.04-.33,1.94-.8,2.68-1.41.74-.62,1.31-1.37,1.7-2.26.39-.89.58-1.89.58-3,0-1.46-.31-2.65-.92-3.58-.62-.93-1.41-1.7-2.39-2.3Z"/>
    <path class="st1" d="M491.18,177.63c-.19-.3-.38-.74-.58-1.32l-7.84-21.72h-2.15l-7.99,21.46c-.2.58-.4,1.04-.6,1.4-.2.35-.48.6-.83.74-.35.14-.87.21-1.55.21v1.09h6.71v-1.09h-1.4c-.53,0-.85-.14-.96-.43-.11-.29-.09-.67.06-1.15l2.41-6.75h8.35l2.37,6.64c.18.48.2.88.08,1.21-.13.33-.48.49-1.06.49h-1.4v1.09h8.64v-1.09c-.6,0-1.08-.05-1.43-.15-.35-.1-.62-.3-.81-.6ZM476.91,168.77l3.66-10.26h.11l3.66,10.26h-7.43Z"/>
    <path class="st1" d="M508.28,166.88c-.98-.6-2.02-1.13-3.13-1.58l-1.77-.75c-.88-.38-1.65-.78-2.3-1.21-.65-.43-1.16-.93-1.51-1.51-.35-.58-.53-1.29-.53-2.15,0-1.46.42-2.53,1.24-3.22.83-.69,1.89-1.04,3.17-1.04,1.16,0,2.12.25,2.88.74.77.49,1.38,1.15,1.83,1.98.45.83.75,1.76.91,2.79h.98l-.38-6.67h-.87c-.03.25-.09.47-.19.66-.1.19-.26.28-.49.28-.28,0-.59-.09-.94-.26-.35-.18-.82-.35-1.41-.53-.59-.18-1.4-.26-2.43-.26-1.41,0-2.69.23-3.85.7-1.16.47-2.08,1.18-2.77,2.13-.69.96-1.04,2.18-1.04,3.66,0,1.33.29,2.45.87,3.36.58.91,1.35,1.67,2.32,2.28.97.62,2.04,1.18,3.22,1.68l1.7.72c1.43.63,2.52,1.33,3.26,2.09.74.77,1.11,1.77,1.11,3,0,.88-.2,1.7-.58,2.45-.39.75-.96,1.35-1.72,1.79-.75.44-1.68.66-2.79.66-.98,0-1.85-.18-2.62-.55-.77-.36-1.43-.85-2-1.45-.57-.6-1.02-1.29-1.36-2.06-.34-.77-.57-1.55-.7-2.36h-.98l.45,7.5h.94c.05-.23.14-.43.26-.62.13-.19.33-.28.6-.28.3,0,.66.09,1.07.26.41.18.97.36,1.68.55.7.19,1.61.28,2.71.28,1.28,0,2.44-.16,3.49-.49,1.04-.33,1.94-.8,2.68-1.41.74-.62,1.31-1.37,1.7-2.26.39-.89.58-1.89.58-3,0-1.46-.31-2.65-.92-3.58-.62-.93-1.41-1.7-2.39-2.3Z"/>
    <path class="st1" d="M527.93,166.88c-.98-.6-2.02-1.13-3.13-1.58l-1.77-.75c-.88-.38-1.65-.78-2.3-1.21-.65-.43-1.16-.93-1.51-1.51-.35-.58-.53-1.29-.53-2.15,0-1.46.41-2.53,1.24-3.22.83-.69,1.89-1.04,3.17-1.04,1.16,0,2.12.25,2.88.74.77.49,1.38,1.15,1.83,1.98.45.83.75,1.76.91,2.79h.98l-.38-6.67h-.87c-.03.25-.09.47-.19.66-.1.19-.26.28-.49.28-.28,0-.59-.09-.94-.26-.35-.18-.82-.35-1.41-.53-.59-.18-1.4-.26-2.43-.26-1.41,0-2.69.23-3.85.7-1.16.47-2.08,1.18-2.77,2.13-.69.96-1.04,2.18-1.04,3.66,0,1.33.29,2.45.87,3.36.58.91,1.35,1.67,2.32,2.28.97.62,2.04,1.18,3.22,1.68l1.7.72c1.43.63,2.52,1.33,3.26,2.09.74.77,1.11,1.77,1.11,3,0,.88-.2,1.7-.58,2.45-.39.75-.96,1.35-1.72,1.79-.75.44-1.68.66-2.79.66-.98,0-1.85-.18-2.62-.55-.77-.36-1.43-.85-2-1.45-.57-.6-1.02-1.29-1.36-2.06-.34-.77-.57-1.55-.7-2.36h-.98l.45,7.5h.94c.05-.23.14-.43.26-.62.13-.19.33-.28.6-.28.3,0,.66.09,1.07.26.41.18.97.36,1.68.55.7.19,1.61.28,2.71.28,1.28,0,2.44-.16,3.49-.49,1.04-.33,1.94-.8,2.68-1.41.74-.62,1.31-1.37,1.7-2.26.39-.89.58-1.89.58-3,0-1.46-.31-2.65-.92-3.58-.62-.93-1.41-1.7-2.39-2.3Z"/>
    <path class="st1" d="M555.1,157.91c-.92-1.18-2.09-2.11-3.53-2.77-1.43-.67-3.16-1-5.17-1s-3.74.33-5.19,1c-1.45.67-2.63,1.59-3.55,2.77-.92,1.18-1.6,2.56-2.04,4.13-.44,1.57-.66,3.25-.66,5.03,0,2.44.4,4.63,1.21,6.58.8,1.95,2.05,3.48,3.73,4.6,1.68,1.12,3.85,1.68,6.49,1.68s4.8-.56,6.49-1.68c1.68-1.12,2.92-2.65,3.71-4.6.79-1.95,1.19-4.14,1.19-6.58,0-1.78-.22-3.46-.66-5.03-.44-1.57-1.12-2.95-2.04-4.13ZM553.57,170.43c-.13,1.11-.35,2.16-.68,3.15s-.77,1.87-1.32,2.62c-.55.75-1.26,1.35-2.11,1.79-.86.44-1.87.66-3.05.66s-2.2-.22-3.05-.66c-.86-.44-1.57-1.04-2.13-1.79-.57-.75-1.01-1.63-1.32-2.62s-.54-2.04-.68-3.15c-.14-1.11-.21-2.22-.21-3.36,0-1.53.11-3,.32-4.39.21-1.4.58-2.64,1.11-3.73.53-1.09,1.28-1.95,2.24-2.58.97-.63,2.21-.94,3.71-.94s2.74.31,3.7.94c.95.63,1.7,1.49,2.22,2.58.53,1.09.9,2.34,1.11,3.73.21,1.4.32,2.86.32,4.39,0,1.13-.06,2.25-.19,3.36Z"/>
    <path class="st1" d="M580.72,175.16c-.35.62-.81,1.19-1.36,1.72-.55.53-1.25.96-2.09,1.28-.84.33-1.88.49-3.11.49-1.51,0-2.8-.33-3.87-1-1.07-.67-1.94-1.56-2.6-2.68-.67-1.12-1.15-2.37-1.45-3.75-.3-1.38-.45-2.79-.45-4.22,0-.9.08-1.88.23-2.92.15-1.04.41-2.07.77-3.09.36-1.02.86-1.95,1.49-2.79.63-.84,1.42-1.51,2.38-2.02.95-.5,2.11-.75,3.47-.75,1.26,0,2.32.19,3.19.57.87.38,1.58.87,2.13,1.47.55.6.99,1.25,1.3,1.94.31.69.55,1.35.7,1.98h.98l-.38-6.79h-.98l-.15.41c-.05.13-.14.25-.28.36-.14.11-.35.17-.62.17-.33,0-.74-.12-1.23-.36-.49-.24-1.13-.47-1.9-.7-.78-.23-1.77-.34-2.98-.34-2.56,0-4.75.53-6.56,1.58-1.81,1.06-3.19,2.57-4.15,4.54-.96,1.97-1.43,4.33-1.43,7.07,0,2.56.45,4.79,1.36,6.67.91,1.89,2.24,3.34,4.02,4.37,1.77,1.03,3.93,1.55,6.47,1.55,1.53,0,2.82-.2,3.87-.6,1.04-.4,1.9-.92,2.58-1.55.68-.63,1.22-1.29,1.62-1.98.4-.69.72-1.33.94-1.9l-.98-.49c-.25.55-.55,1.14-.9,1.75Z"/>
    <path class="st1" d="M586.19,155.68c.93,0,1.6.06,2,.17.4.11.65.33.75.66.1.33.15.82.15,1.47v18.14c0,.63-.05,1.11-.15,1.43-.1.33-.35.55-.75.66-.4.11-1.07.17-2,.17v1.09h9.28v-1.09c-.9,0-1.56-.06-1.98-.17-.41-.11-.67-.33-.77-.66-.1-.33-.15-.8-.15-1.43v-18.14c0-.65.05-1.14.15-1.47.1-.33.36-.55.77-.66.41-.11,1.07-.17,1.98-.17v-1.09h-9.28v1.09Z"/>
    <path class="st1" d="M619.17,177.63c-.19-.3-.38-.74-.58-1.32l-7.84-21.72h-2.15l-7.99,21.46c-.2.58-.4,1.04-.6,1.4-.2.35-.48.6-.83.74-.35.14-.87.21-1.55.21v1.09h6.71v-1.09h-1.4c-.53,0-.85-.14-.96-.43-.11-.29-.09-.67.06-1.15l2.41-6.75h8.35l2.37,6.64c.18.48.2.88.08,1.21-.13.33-.48.49-1.06.49h-1.4v1.09h8.64v-1.09c-.6,0-1.08-.05-1.43-.15-.35-.1-.62-.3-.81-.6ZM604.89,168.77l3.66-10.26h.11l3.66,10.26h-7.43Z"/>
    <path class="st1" d="M634.76,154.59h-11.2v1.09c.93,0,1.6.05,2,.15.4.1.65.31.75.64.1.33.15.82.15,1.47v18.18c0,.65-.05,1.14-.15,1.47-.1.33-.35.54-.75.64-.4.1-1.07.15-2,.15v1.09h10.29c2.76,0,5.13-.48,7.09-1.43,1.96-.96,3.46-2.38,4.49-4.28,1.03-1.9,1.55-4.28,1.55-7.15,0-3.95-1.06-6.93-3.19-8.96-2.12-2.02-5.14-3.05-9.03-3.07ZM642.28,172.18c-.47,1.47-1.13,2.65-1.98,3.55-.86.89-1.86,1.53-3.02,1.92-1.16.39-2.43.58-3.81.58-.85,0-1.54-.07-2.06-.21-.52-.14-.89-.42-1.13-.85-.24-.43-.36-1.04-.36-1.85v-17.61c0-.55.09-.96.26-1.23.18-.26.54-.43,1.09-.51.55-.08,1.4-.11,2.53-.11,2.19.03,3.95.49,5.3,1.4,1.34.9,2.32,2.17,2.94,3.79.62,1.62.92,3.53.92,5.71s-.23,3.94-.7,5.41Z"/>
    <path class="st1" d="M671.13,157.91c-.92-1.18-2.09-2.11-3.53-2.77-1.43-.67-3.16-1-5.17-1s-3.74.33-5.19,1c-1.45.67-2.63,1.59-3.55,2.77-.92,1.18-1.6,2.56-2.04,4.13-.44,1.57-.66,3.25-.66,5.03,0,2.44.4,4.63,1.21,6.58.8,1.95,2.05,3.48,3.73,4.6,1.68,1.12,3.85,1.68,6.49,1.68s4.8-.56,6.49-1.68c1.68-1.12,2.92-2.65,3.71-4.6.79-1.95,1.19-4.14,1.19-6.58,0-1.78-.22-3.46-.66-5.03-.44-1.57-1.12-2.95-2.04-4.13ZM669.6,170.43c-.13,1.11-.35,2.16-.68,3.15-.33.99-.77,1.87-1.32,2.62-.55.75-1.26,1.35-2.11,1.79-.86.44-1.87.66-3.05.66s-2.2-.22-3.05-.66c-.86-.44-1.57-1.04-2.13-1.79-.57-.75-1.01-1.63-1.32-2.62-.31-.99-.54-2.04-.68-3.15-.14-1.11-.21-2.22-.21-3.36,0-1.53.11-3,.32-4.39.21-1.4.58-2.64,1.11-3.73.53-1.09,1.28-1.95,2.24-2.58.97-.63,2.21-.94,3.71-.94s2.74.31,3.7.94c.95.63,1.7,1.49,2.22,2.58.53,1.09.9,2.34,1.11,3.73.21,1.4.32,2.86.32,4.39,0,1.13-.06,2.25-.19,3.36Z"/>
    <path class="st1" d="M690.38,166.88c-.98-.6-2.02-1.13-3.13-1.58l-1.77-.75c-.88-.38-1.65-.78-2.3-1.21-.65-.43-1.16-.93-1.51-1.51-.35-.58-.53-1.29-.53-2.15,0-1.46.41-2.53,1.24-3.22.83-.69,1.89-1.04,3.17-1.04,1.16,0,2.12.25,2.88.74.77.49,1.38,1.15,1.83,1.98.45.83.75,1.76.91,2.79h.98l-.38-6.67h-.87c-.03.25-.09.47-.19.66-.1.19-.26.28-.49.28-.28,0-.59-.09-.94-.26-.35-.18-.82-.35-1.41-.53-.59-.18-1.4-.26-2.43-.26-1.41,0-2.69.23-3.85.7-1.16.47-2.08,1.18-2.77,2.13-.69.96-1.04,2.18-1.04,3.66,0,1.33.29,2.45.87,3.36.58.91,1.35,1.67,2.32,2.28.97.62,2.04,1.18,3.22,1.68l1.7.72c1.43.63,2.52,1.33,3.26,2.09.74.77,1.11,1.77,1.11,3,0,.88-.2,1.7-.58,2.45-.39.75-.96,1.35-1.72,1.79-.75.44-1.68.66-2.79.66-.98,0-1.85-.18-2.62-.55-.77-.36-1.43-.85-2-1.45-.57-.6-1.02-1.29-1.36-2.06-.34-.77-.57-1.55-.7-2.36h-.98l.45,7.5h.94c.05-.23.14-.43.26-.62.13-.19.33-.28.6-.28.3,0,.66.09,1.07.26.41.18.97.36,1.68.55.7.19,1.61.28,2.71.28,1.28,0,2.44-.16,3.49-.49,1.04-.33,1.94-.8,2.68-1.41.74-.62,1.31-1.37,1.7-2.26.39-.89.58-1.89.58-3,0-1.46-.31-2.65-.92-3.58-.62-.93-1.41-1.7-2.39-2.3Z"/>
    <path class="st1" d="M292.47,52.32h-52.72v3.28c2.79,0,4.79.17,6,.51,1.21.34,1.96.98,2.26,1.92.3.94.45,2.4.45,4.36v54.53c0,1.89-.15,3.32-.45,4.3-.3.98-1.06,1.64-2.26,1.98-1.21.34-3.21.51-6,.51v3.28h29.64v-3.28c-3.24,0-5.62-.17-7.13-.51-1.51-.34-2.45-1-2.83-1.98-.38-.98-.57-2.41-.57-4.3v-24.89h13.46c2.94,0,5.09.3,6.45.91,1.36.6,2.3,1.6,2.83,3,.53,1.4.98,3.26,1.36,5.6h2.6v-23.42h-2.6c-.38,2.34-.83,4.21-1.36,5.6-.53,1.4-1.47,2.4-2.83,3-1.36.6-3.51.91-6.45.91h-13.46v-27.38c0-1.81.26-2.94.79-3.39.53-.45,1.66-.68,3.39-.68h9.73c4.22,0,7.41.4,9.56,1.19,2.15.79,3.73,2.19,4.75,4.19,1.02,2,1.83,4.85,2.43,8.54h2.94v-17.76Z"/>
    <path class="st1" d="M348.23,126.99h11.1v-3.28c-1.96,0-3.56-.49-4.81-1.47-1.24-.98-2.23-2.39-2.94-4.24-.72-1.85-1.3-4.05-1.75-6.62l-.68-4.19c-.53-3.54-1.28-6.45-2.26-8.71-.98-2.26-2.3-4.07-3.96-5.43-1.66-1.36-3.81-2.41-6.45-3.17v-.23c3.17-.75,5.96-1.92,8.37-3.51,2.41-1.58,4.3-3.66,5.66-6.22,1.36-2.56,2.04-5.62,2.04-9.16,0-4.15-.96-7.58-2.88-10.29s-4.66-4.75-8.2-6.11c-3.55-1.36-7.77-2.04-12.67-2.04h-30.43v3.28c2.64,0,4.58.15,5.83.45,1.24.3,2.04.92,2.38,1.87.34.94.51,2.32.51,4.13v55.32c0,1.74-.17,3.05-.51,3.96-.34.91-1.11,1.53-2.32,1.87-1.21.34-3.17.51-5.88.51v3.28h28.4v-3.28c-2.79,0-4.85-.15-6.17-.45-1.32-.3-2.17-.9-2.55-1.81-.38-.91-.57-2.26-.57-4.07v-25.45h6.9c4,0,6.98.85,8.94,2.55,1.96,1.7,3.28,4.43,3.96,8.2l2.83,13.91c.53,2.64,1.17,4.79,1.92,6.45,0,.02.02.03.02.05,1.1,2.4,3.54,3.91,6.18,3.91ZM324.49,87.84h-7.01v-27.38c0-1.43.4-2.49,1.19-3.17.79-.68,2.7-1.02,5.71-1.02,5.73,0,9.99,1.26,12.78,3.79,2.79,2.53,4.19,6.54,4.19,12.05s-1.38,9.41-4.13,11.93c-2.75,2.53-7,3.79-12.73,3.79Z"/>
    <path class="st1" d="M382.18,123.71h-4.19c-1.58,0-2.55-.43-2.88-1.3-.34-.87-.28-2.02.17-3.45l7.22-20.25h25.04l7.11,19.91c.53,1.43.6,2.64.23,3.62-.38.98-1.43,1.47-3.17,1.47h-4.19v3.28h25.91v-3.28c-1.81,0-3.24-.15-4.3-.45-1.06-.3-1.87-.9-2.43-1.81-.57-.91-1.15-2.22-1.75-3.96l-23.53-65.16h-6.45l-23.98,64.37c-.6,1.74-1.21,3.13-1.81,4.19-.6,1.06-1.43,1.79-2.49,2.21-1.06.42-2.6.62-4.64.62v3.28h20.14v-3.28ZM395.19,64.09l10.98,30.77h-22.3l10.98-30.77h.34Z"/>
    <path class="st1" d="M500.52,61.03c0-3.62,1.73-5.43,5.2-5.43h3.39v-3.28h-23.08v3.28h4.41c3.85,0,5.77,1.81,5.77,5.43v49.21h-.23l-38.24-57.92h-19.01v3.28c2.71,0,4.69.15,5.94.45,1.24.3,2.04.9,2.38,1.81.34.9.51,2.3.51,4.19v55.77c0,3.92-1.77,5.88-5.32,5.88h-3.39v3.28h23.19v-3.28h-4.53c-2.04,0-3.49-.45-4.36-1.36-.87-.91-1.3-2.41-1.3-4.53v-54.41h.23l42.88,64.26h5.54V61.03Z"/>
    <path class="st1" d="M564.49,126.53c3.13-1.21,5.71-2.75,7.75-4.64,2.04-1.88,3.66-3.86,4.86-5.94,1.21-2.07,2.15-3.98,2.83-5.71l-2.94-1.47c-.75,1.66-1.66,3.41-2.72,5.26-1.06,1.85-2.41,3.56-4.07,5.15-1.66,1.58-3.75,2.87-6.28,3.85-2.53.98-5.64,1.47-9.33,1.47-4.53,0-8.39-1-11.6-3-3.21-2-5.81-4.68-7.81-8.03-2-3.35-3.45-7.11-4.36-11.26-.91-4.15-1.36-8.37-1.36-12.67,0-2.72.23-5.64.68-8.77.45-3.13,1.22-6.22,2.32-9.28,1.09-3.05,2.58-5.84,4.47-8.37,1.88-2.53,4.26-4.54,7.13-6.05,2.87-1.51,6.34-2.26,10.41-2.26,3.77,0,6.96.57,9.56,1.7,2.6,1.13,4.73,2.6,6.39,4.41,1.66,1.81,2.96,3.75,3.9,5.83.94,2.08,1.64,4.06,2.09,5.94h2.94l-1.13-20.36h-2.94l-.45,1.24c-.15.38-.44.74-.85,1.07-.42.34-1.04.51-1.87.51-.98,0-2.21-.36-3.68-1.07-1.47-.72-3.38-1.41-5.71-2.09-2.34-.68-5.32-1.02-8.94-1.02-7.69,0-14.25,1.58-19.68,4.75-5.43,3.17-9.58,7.71-12.44,13.63-2.87,5.92-4.3,12.99-4.3,21.21,0,7.69,1.36,14.37,4.07,20.02,2.71,5.66,6.73,10.03,12.05,13.12,5.32,3.09,11.78,4.64,19.4,4.64,4.6,0,8.47-.6,11.6-1.81Z"/>
    <path class="st1" d="M640.57,117.37c-1.43,2.26-3.49,3.81-6.17,4.64-2.68.83-6.28,1.24-10.8,1.24-4,0-6.98-.23-8.94-.68-1.96-.45-3.26-1.3-3.9-2.55-.64-1.24-.96-3.11-.96-5.6v-24.21h12.78c2.94,0,5.07.3,6.39.9,1.32.6,2.24,1.58,2.77,2.94.53,1.36.98,3.21,1.36,5.54h2.83v-23.08h-2.83c-.38,2.34-.83,4.19-1.36,5.54-.53,1.36-1.45,2.34-2.77,2.94-1.32.6-3.45.91-6.39.91h-12.78v-25.68c0-1.73.24-2.85.74-3.34.49-.49,1.6-.74,3.34-.74h9.84c4.15,0,7.3.42,9.45,1.24,2.15.83,3.71,2.28,4.69,4.36.98,2.08,1.77,4.96,2.38,8.65h3.05v-18.1h-52.6v3.28c2.79,0,4.79.15,6,.45,1.21.3,1.96.94,2.26,1.92.3.98.45,2.45.45,4.41v54.53c0,1.96-.15,3.43-.45,4.41-.3.98-1.06,1.62-2.26,1.92-1.21.3-3.21.45-6,.45v3.28h55.09l1.36-19.46h-2.94c-.98,4.3-2.19,7.58-3.62,9.84Z"/>
    <path class="st1" d="M695.21,89.2c-2.94-1.81-6.07-3.39-9.39-4.75l-5.32-2.26c-2.64-1.13-4.94-2.34-6.9-3.62-1.96-1.28-3.47-2.79-4.53-4.53-1.06-1.73-1.58-3.88-1.58-6.45,0-4.37,1.24-7.6,3.73-9.67,2.49-2.07,5.66-3.11,9.5-3.11,3.47,0,6.35.74,8.65,2.21,2.3,1.47,4.13,3.45,5.49,5.94,1.36,2.49,2.26,5.28,2.72,8.37h2.94l-1.13-20.02h-2.6c-.08.75-.27,1.41-.57,1.98-.3.57-.79.85-1.47.85-.83,0-1.77-.26-2.83-.79-1.06-.53-2.47-1.06-4.24-1.58-1.77-.53-4.21-.79-7.3-.79-4.22,0-8.07.7-11.54,2.09-3.47,1.4-6.24,3.53-8.32,6.39-2.08,2.87-3.11,6.52-3.11,10.97,0,4,.87,7.35,2.6,10.07,1.73,2.72,4.05,5,6.96,6.84,2.9,1.85,6.13,3.53,9.67,5.03l5.09,2.15c4.3,1.89,7.56,3.98,9.79,6.28,2.22,2.3,3.34,5.3,3.34,8.99,0,2.64-.58,5.09-1.75,7.35-1.17,2.26-2.88,4.06-5.15,5.37-2.26,1.32-5.05,1.98-8.37,1.98-2.94,0-5.56-.55-7.86-1.64-2.3-1.09-4.3-2.55-6-4.36-1.7-1.81-3.05-3.86-4.07-6.17-1.02-2.3-1.72-4.66-2.09-7.07h-2.94l1.36,22.51h2.83c.15-.68.41-1.3.79-1.87.38-.57.98-.85,1.81-.85.91,0,1.98.27,3.22.79,1.24.53,2.92,1.07,5.03,1.64,2.11.57,4.83.85,8.15.85,3.85,0,7.33-.49,10.46-1.47,3.13-.98,5.81-2.39,8.03-4.24,2.22-1.85,3.92-4.11,5.09-6.79,1.17-2.68,1.75-5.67,1.75-8.99,0-4.37-.92-7.96-2.77-10.75-1.85-2.79-4.24-5.09-7.18-6.9Z"/>
    <path class="st1" d="M773.27,114.03c-1.06,1.85-2.41,3.56-4.07,5.15-1.66,1.58-3.75,2.87-6.28,3.85-2.53.98-5.64,1.47-9.33,1.47-4.53,0-8.39-1-11.6-3-3.21-2-5.81-4.68-7.81-8.03-2-3.35-3.45-7.11-4.36-11.26-.91-4.15-1.36-8.37-1.36-12.67,0-2.72.23-5.64.68-8.77.45-3.13,1.23-6.22,2.32-9.28,1.09-3.05,2.58-5.84,4.47-8.37,1.88-2.53,4.26-4.54,7.13-6.05,2.87-1.51,6.34-2.26,10.41-2.26,3.77,0,6.96.57,9.56,1.7,2.6,1.13,4.73,2.6,6.39,4.41,1.66,1.81,2.96,3.75,3.9,5.83.94,2.08,1.64,4.06,2.09,5.94h2.94l-1.13-20.36h-2.94l-.45,1.24c-.15.38-.43.74-.85,1.07-.42.34-1.04.51-1.87.51-.98,0-2.21-.36-3.68-1.07-1.47-.72-3.38-1.41-5.71-2.09-2.34-.68-5.32-1.02-8.94-1.02-7.69,0-14.25,1.58-19.68,4.75-5.43,3.17-9.58,7.71-12.44,13.63-2.87,5.92-4.3,12.99-4.3,21.21,0,7.69,1.36,14.37,4.07,20.02,2.72,5.66,6.73,10.03,12.05,13.12,5.32,3.09,11.78,4.64,19.4,4.64,4.6,0,8.47-.6,11.6-1.81,3.13-1.21,5.71-2.75,7.75-4.64,2.04-1.88,3.66-3.86,4.86-5.94,1.21-2.07,2.15-3.98,2.83-5.71l-2.94-1.47c-.75,1.66-1.66,3.41-2.72,5.26Z"/>
    <path class="st1" d="M836.5,55.6c2.79,0,4.79.17,6,.51,1.21.34,1.96.96,2.26,1.87.3.91.45,2.26.45,4.07v23.87h-36.43v-23.87c0-1.81.15-3.17.45-4.07.3-.91,1.07-1.53,2.32-1.87,1.24-.34,3.22-.51,5.94-.51v-3.28h-27.83v3.28c2.79,0,4.79.17,6,.51,1.21.34,1.96.96,2.26,1.87.3.91.45,2.26.45,4.07v55.32c0,1.81-.15,3.17-.45,4.07-.3.91-1.06,1.51-2.26,1.81-1.21.3-3.21.45-6,.45v3.28h27.83v-3.28c-2.72,0-4.69-.15-5.94-.45-1.24-.3-2.02-.9-2.32-1.81-.3-.91-.45-2.26-.45-4.07v-27.15h36.43v27.15c0,1.81-.15,3.17-.45,4.07-.3.91-1.06,1.51-2.26,1.81-1.21.3-3.21.45-6,.45v3.28h27.83v-3.28c-2.72,0-4.68-.15-5.88-.45-1.21-.3-1.98-.9-2.32-1.81-.34-.91-.51-2.26-.51-4.07v-55.32c0-1.81.15-3.17.45-4.07.3-.91,1.07-1.53,2.32-1.87,1.24-.34,3.22-.51,5.94-.51v-3.28h-27.83v3.28Z"/>
    <path class="st1" d="M875.53,55.6c2.79,0,4.79.17,6,.51,1.21.34,1.96,1,2.26,1.98.3.98.45,2.45.45,4.41v54.41c0,1.89-.15,3.32-.45,4.3-.3.98-1.06,1.64-2.26,1.98-1.21.34-3.21.51-6,.51v3.28h27.83v-3.28c-2.72,0-4.69-.17-5.94-.51-1.24-.34-2.02-1-2.32-1.98-.3-.98-.45-2.41-.45-4.3v-54.41c0-1.96.15-3.43.45-4.41.3-.98,1.07-1.64,2.32-1.98,1.24-.34,3.22-.51,5.94-.51v-3.28h-27.83v3.28Z"/>
    <path class="st1" d="M960.72,55.6h4.41c3.85,0,5.77,1.81,5.77,5.43v49.21h-.23l-38.24-57.92h-19.01v3.28c2.72,0,4.69.15,5.94.45,1.24.3,2.04.9,2.38,1.81.34.9.51,2.3.51,4.19v55.77c0,3.92-1.77,5.88-5.32,5.88h-3.39v3.28h23.19v-3.28h-4.52c-2.04,0-3.49-.45-4.36-1.36-.87-.91-1.3-2.41-1.3-4.53v-54.41h.23l42.88,64.26h5.54V61.03c0-3.62,1.73-5.43,5.2-5.43h3.39v-3.28h-23.08v3.28Z"/>
    <path class="st1" d="M1013.55,58.09c.3-.98,1.07-1.64,2.32-1.98,1.24-.34,3.22-.51,5.94-.51v-3.28h-27.83v3.28c2.79,0,4.79.17,6,.51,1.21.34,1.96,1,2.26,1.98.3.98.45,2.45.45,4.41v54.41c0,1.89-.15,3.32-.45,4.3-.3.98-1.06,1.64-2.26,1.98-1.21.34-3.21.51-6,.51v3.28h27.83v-3.28c-2.72,0-4.69-.17-5.94-.51-1.24-.34-2.02-1-2.32-1.98-.3-.98-.45-2.41-.45-4.3v-54.41c0-1.96.15-3.43.45-4.41Z"/>
    <path class="st1" d="M124.9,80.01l-13.16-13.16-28.58,28.58c-1.21,1.21-1.46,3.07-.62,4.56l45.05,79.9-19.59-82.97,16.9-16.9Z"/>
    <polygon class="st1" points="109.06 64.17 95.9 51.01 50 96.91 127.6 179.89 76.31 96.91 109.06 64.17"/>
    <polygon class="st1" points="146.13 64.17 178.88 96.91 127.6 179.89 205.19 96.91 159.29 51.01 146.13 64.17"/>
    <rect class="st1" x="118.29" y="54.86" width="18.61" height="18.61" transform="translate(-8 109.02) rotate(-45)"/>
    <path class="st1" d="M172.02,95.43l-28.58-28.58-13.16,13.16,16.9,16.9-19.59,82.97,45.05-79.9c.84-1.49.58-3.35-.62-4.56Z"/>
    <path class="st1" d="M141.58,96.68l-13.98-13.98-13.98,13.98c-.89.89-1.28,2.16-1.05,3.39l15.03,79.81,15.03-79.81c.23-1.23-.16-2.51-1.05-3.39Z"/>
  </g>
  
</svg>